<svg width="22" height="22" viewBox="0 0 22 22" fill="none" xmlns="http://www.w3.org/2000/svg">
<g clip-path="url(#clip0_1536_1768)">
<path d="M2.2 4.4H0V19.8C0 21.01 0.99 22 2.2 22H17.6V19.8H2.2V4.4ZM19.8 0H6.6C5.39 0 4.4 0.99 4.4 2.2V15.4C4.4 16.61 5.39 17.6 6.6 17.6H19.8C21.01 17.6 22 16.61 22 15.4V2.2C22 0.99 21.01 0 19.8 0ZM19.8 15.4H6.6V2.2H19.8V15.4ZM8.8 7.7H17.6V9.9H8.8V7.7ZM8.8 11H13.2V13.2H8.8V11ZM8.8 4.4H17.6V6.6H8.8V4.4Z" fill="#5E616E"/>
</g>
<defs>
<clipPath id="clip0_1536_1768">
<rect width="22" height="22" fill="white"/>
</clipPath>
</defs>
</svg>
