<svg width="22" height="14" viewBox="0 0 22 14" fill="none" xmlns="http://www.w3.org/2000/svg">
<path d="M6 8.25C7.66 8.25 9 7.02167 9 5.5C9 3.97833 7.66 2.75 6 2.75C4.34 2.75 3 3.97833 3 5.5C3 7.02167 4.34 8.25 6 8.25ZM6 4.58333C6.55 4.58333 7 4.99583 7 5.5C7 6.00417 6.55 6.41667 6 6.41667C5.45 6.41667 5 6.00417 5 5.5C5 4.99583 5.45 4.58333 6 4.58333ZM18 1.83333H10V9.16667H2V0H0V13.75H2V11H20V13.75H22V5.5C22 3.47417 20.21 1.83333 18 1.83333ZM20 9.16667H12V3.66667H18C19.1 3.66667 20 4.49167 20 5.5V9.16667Z" fill="#676767"/>
</svg>
