<svg width="22" height="22" viewBox="0 0 22 22" fill="none" xmlns="http://www.w3.org/2000/svg">
<g clip-path="url(#clip0_1536_1764)">
<path d="M16.5 0H5.5C4.29 0 3.3 0.99 3.3 2.2V4.4C3.3 5.61 4.29 6.6 5.5 6.6H16.5C17.71 6.6 18.7 5.61 18.7 4.4V2.2C18.7 0.99 17.71 0 16.5 0ZM16.5 4.4H5.5V2.2H16.5V4.4ZM19.8 22H2.2C0.99 22 0 21.01 0 19.8V18.7H22V19.8C22 21.01 21.01 22 19.8 22ZM18.183 9.009C17.831 8.217 17.039 7.7 16.17 7.7H5.83C4.961 7.7 4.169 8.217 3.817 9.009L0 17.6H22L18.183 9.009ZM8.25 15.4H7.15C6.842 15.4 6.6 15.158 6.6 14.85C6.6 14.542 6.842 14.3 7.15 14.3H8.25C8.558 14.3 8.8 14.542 8.8 14.85C8.8 15.158 8.558 15.4 8.25 15.4ZM8.25 13.2H7.15C6.842 13.2 6.6 12.958 6.6 12.65C6.6 12.342 6.842 12.1 7.15 12.1H8.25C8.558 12.1 8.8 12.342 8.8 12.65C8.8 12.958 8.558 13.2 8.25 13.2ZM8.25 11H7.15C6.842 11 6.6 10.758 6.6 10.45C6.6 10.142 6.842 9.9 7.15 9.9H8.25C8.558 9.9 8.8 10.142 8.8 10.45C8.8 10.758 8.558 11 8.25 11ZM11.55 15.4H10.45C10.142 15.4 9.9 15.158 9.9 14.85C9.9 14.542 10.142 14.3 10.45 14.3H11.55C11.858 14.3 12.1 14.542 12.1 14.85C12.1 15.158 11.858 15.4 11.55 15.4ZM11.55 13.2H10.45C10.142 13.2 9.9 12.958 9.9 12.65C9.9 12.342 10.142 12.1 10.45 12.1H11.55C11.858 12.1 12.1 12.342 12.1 12.65C12.1 12.958 11.858 13.2 11.55 13.2ZM11.55 11H10.45C10.142 11 9.9 10.758 9.9 10.45C9.9 10.142 10.142 9.9 10.45 9.9H11.55C11.858 9.9 12.1 10.142 12.1 10.45C12.1 10.758 11.858 11 11.55 11ZM14.85 15.4H13.75C13.442 15.4 13.2 15.158 13.2 14.85C13.2 14.542 13.442 14.3 13.75 14.3H14.85C15.158 14.3 15.4 14.542 15.4 14.85C15.4 15.158 15.158 15.4 14.85 15.4ZM14.85 13.2H13.75C13.442 13.2 13.2 12.958 13.2 12.65C13.2 12.342 13.442 12.1 13.75 12.1H14.85C15.158 12.1 15.4 12.342 15.4 12.65C15.4 12.958 15.158 13.2 14.85 13.2ZM14.85 11H13.75C13.442 11 13.2 10.758 13.2 10.45C13.2 10.142 13.442 9.9 13.75 9.9H14.85C15.158 9.9 15.4 10.142 15.4 10.45C15.4 10.758 15.158 11 14.85 11Z" fill="#5E616E"/>
</g>
<defs>
<clipPath id="clip0_1536_1764">
<rect width="22" height="22" fill="white"/>
</clipPath>
</defs>
</svg>
