<svg width="22" height="22" viewBox="0 0 22 22" fill="none" xmlns="http://www.w3.org/2000/svg">
<g clip-path="url(#clip0_1536_1758)">
<path d="M11.561 8.789C11.561 6.974 10.076 5.489 8.261 5.489C6.446 5.489 4.961 6.974 4.961 8.789C4.961 10.604 6.446 12.089 8.261 12.089C10.076 12.089 11.561 10.604 11.561 8.789ZM8.261 9.889C7.656 9.889 7.161 9.394 7.161 8.789C7.161 8.184 7.656 7.689 8.261 7.689C8.866 7.689 9.361 8.184 9.361 8.789C9.361 9.394 8.866 9.889 8.261 9.889ZM15.411 12.089C16.632 12.089 17.611 11.11 17.611 9.889C17.611 8.668 16.632 7.689 15.411 7.689C14.19 7.689 13.2 8.668 13.211 9.889C13.211 11.11 14.19 12.089 15.411 12.089ZM11 0C4.928 0 0 4.928 0 11C0 17.072 4.928 22 11 22C17.072 22 22 17.072 22 11C22 4.928 17.072 0 11 0ZM4.235 16.621C4.983 16.027 6.732 15.4 8.261 15.4C8.338 15.4 8.426 15.411 8.514 15.411C8.778 14.707 9.251 13.992 9.944 13.365C9.328 13.255 8.745 13.189 8.261 13.189C6.831 13.189 4.532 13.684 3.058 14.762C2.508 13.618 2.2 12.342 2.2 10.989C2.2 6.138 6.149 2.189 11 2.189C15.851 2.189 19.8 6.138 19.8 10.989C19.8 12.309 19.503 13.563 18.975 14.696C17.875 14.047 16.379 13.739 15.411 13.739C13.739 13.739 10.461 14.63 10.461 16.709V19.767C7.964 19.624 5.742 18.436 4.235 16.621Z" fill="#676767"/>
</g>
<defs>
<clipPath id="clip0_1536_1758">
<rect width="22" height="22" fill="white"/>
</clipPath>
</defs>
</svg>
