<svg width="22" height="22" viewBox="0 0 22 22" fill="none" xmlns="http://www.w3.org/2000/svg">
<path d="M11 11C13.0167 11 14.6667 9.35 14.6667 7.33333C14.6667 5.31667 13.0167 3.66667 11 3.66667C8.98333 3.66667 7.33333 5.31667 7.33333 7.33333C7.33333 9.35 8.98333 11 11 11ZM11 6.11111C11.6722 6.11111 12.2222 6.66111 12.2222 7.33333C12.2222 8.00556 11.6722 8.55556 11 8.55556C10.3278 8.55556 9.77778 8.00556 9.77778 7.33333C9.77778 6.66111 10.3278 6.11111 11 6.11111ZM18.3333 16.5978C18.3333 13.5422 13.4811 12.2222 11 12.2222C8.51889 12.2222 3.66667 13.5422 3.66667 16.5978V18.3333H18.3333V16.5978ZM6.69778 15.8889C7.60222 15.2656 9.42333 14.6667 11 14.6667C12.5767 14.6667 14.3978 15.2656 15.3022 15.8889H6.69778ZM19.5556 0H2.44444C1.08778 0 0 1.1 0 2.44444V19.5556C0 20.9 1.08778 22 2.44444 22H19.5556C20.9 22 22 20.9 22 19.5556V2.44444C22 1.1 20.9 0 19.5556 0ZM19.5556 19.5556H2.44444V2.44444H19.5556V19.5556Z" fill="#5E616E"/>
</svg>
